<svg width="154" height="37" viewBox="0 0 154 37" fill="none" xmlns="http://www.w3.org/2000/svg">
<path d="M2.1 29V8H6.99L15.69 22.28H13.11L21.57 8H26.46L26.52 29H21.06L21 16.31H21.93L15.6 26.93H12.96L6.45 16.31H7.59V29H2.1ZM32.703 29L41.973 8H47.823L57.123 29H50.943L43.683 10.91H46.023L38.763 29H32.703ZM37.773 24.92L39.303 20.54H49.563L51.093 24.92H37.773ZM63.307 29V8H69.247V29H63.307ZM85.353 29.42C83.633 29.42 81.973 29.21 80.373 28.79C78.793 28.35 77.503 27.79 76.503 27.11L78.453 22.73C79.393 23.33 80.473 23.83 81.693 24.23C82.933 24.61 84.163 24.8 85.383 24.8C86.203 24.8 86.863 24.73 87.363 24.59C87.863 24.43 88.223 24.23 88.443 23.99C88.683 23.73 88.803 23.43 88.803 23.09C88.803 22.61 88.583 22.23 88.143 21.95C87.703 21.67 87.133 21.44 86.433 21.26C85.733 21.08 84.953 20.9 84.093 20.72C83.253 20.54 82.403 20.31 81.543 20.03C80.703 19.75 79.933 19.39 79.233 18.95C78.533 18.49 77.963 17.9 77.523 17.18C77.083 16.44 76.863 15.51 76.863 14.39C76.863 13.13 77.203 11.99 77.883 10.97C78.583 9.95 79.623 9.13 81.003 8.51C82.383 7.89 84.103 7.58 86.163 7.58C87.543 7.58 88.893 7.74 90.213 8.06C91.553 8.36 92.743 8.81 93.783 9.41L91.953 13.82C90.953 13.28 89.963 12.88 88.983 12.62C88.003 12.34 87.053 12.2 86.133 12.2C85.313 12.2 84.653 12.29 84.153 12.47C83.653 12.63 83.293 12.85 83.073 13.13C82.853 13.41 82.743 13.73 82.743 14.09C82.743 14.55 82.953 14.92 83.373 15.2C83.813 15.46 84.383 15.68 85.083 15.86C85.803 16.02 86.583 16.19 87.423 16.37C88.283 16.55 89.133 16.78 89.973 17.06C90.833 17.32 91.613 17.68 92.313 18.14C93.013 18.58 93.573 19.17 93.993 19.91C94.433 20.63 94.653 21.54 94.653 22.64C94.653 23.86 94.303 24.99 93.603 26.03C92.923 27.05 91.893 27.87 90.513 28.49C89.153 29.11 87.433 29.42 85.353 29.42ZM112.487 29.42C110.807 29.42 109.257 29.15 107.837 28.61C106.417 28.07 105.177 27.31 104.117 26.33C103.077 25.33 102.267 24.17 101.687 22.85C101.107 21.53 100.817 20.08 100.817 18.5C100.817 16.92 101.107 15.47 101.687 14.15C102.267 12.83 103.077 11.68 104.117 10.7C105.177 9.7 106.417 8.93 107.837 8.39C109.257 7.85 110.807 7.58 112.487 7.58C114.187 7.58 115.737 7.85 117.137 8.39C118.557 8.93 119.787 9.7 120.827 10.7C121.867 11.68 122.677 12.83 123.257 14.15C123.857 15.47 124.157 16.92 124.157 18.5C124.157 20.08 123.857 21.54 123.257 22.88C122.677 24.2 121.867 25.35 120.827 26.33C119.787 27.31 118.557 28.07 117.137 28.61C115.737 29.15 114.187 29.42 112.487 29.42ZM112.487 24.5C113.287 24.5 114.027 24.36 114.707 24.08C115.407 23.8 116.007 23.4 116.507 22.88C117.027 22.34 117.427 21.7 117.707 20.96C118.007 20.22 118.157 19.4 118.157 18.5C118.157 17.58 118.007 16.76 117.707 16.04C117.427 15.3 117.027 14.67 116.507 14.15C116.007 13.61 115.407 13.2 114.707 12.92C114.027 12.64 113.287 12.5 112.487 12.5C111.687 12.5 110.937 12.64 110.237 12.92C109.557 13.2 108.957 13.61 108.437 14.15C107.937 14.67 107.537 15.3 107.237 16.04C106.957 16.76 106.817 17.58 106.817 18.5C106.817 19.4 106.957 20.22 107.237 20.96C107.537 21.7 107.937 22.34 108.437 22.88C108.957 23.4 109.557 23.8 110.237 24.08C110.937 24.36 111.687 24.5 112.487 24.5ZM131.768 29V8H136.658L148.238 21.98H145.928V8H151.748V29H146.858L135.278 15.02H137.588V29H131.768Z" fill="black"/>
<rect x="108.121" y="25.1421" width="3" height="17" transform="rotate(-135 108.121 25.1421)" fill="black"/>
</svg>
